<svg width="24" height="24" viewBox="0 0 24 24" fill="none" xmlns="http://www.w3.org/2000/svg">
<path d="M4.9325 22.75C4.5125 22.75 4.1225 22.65 3.7725 22.45C3.0025 22 2.5625 21.09 2.5625 19.96V5.86C2.5625 3.32 4.6325 1.25 7.1725 1.25H16.8225C19.3625 1.25 21.4325 3.32 21.4325 5.86V19.95C21.4325 21.08 20.9925 21.99 20.2225 22.44C19.4525 22.89 18.4425 22.84 17.4525 22.29L12.5725 19.58C12.2825 19.42 11.7125 19.42 11.4225 19.58L6.5425 22.29C6.0025 22.59 5.4525 22.75 4.9325 22.75ZM7.1825 2.75C5.4725 2.75 4.0725 4.15 4.0725 5.86V19.95C4.0725 20.54 4.2425 20.98 4.5425 21.15C4.8425 21.33 5.3125 21.27 5.8225 20.98L10.7025 18.27C11.4425 17.86 12.5625 17.86 13.3025 18.27L18.1825 20.98C18.6925 21.27 19.1625 21.33 19.4625 21.15C19.7625 20.97 19.9325 20.53 19.9325 19.95V5.86C19.9325 4.15 18.5325 2.75 16.8225 2.75H7.1825Z" fill="#CB1B1B"/>
</svg>
