<svg width="24" height="25" viewBox="0 0 24 25" fill="none" xmlns="http://www.w3.org/2000/svg">
<path d="M10.4493 7.96997C10.2593 7.96997 10.0692 7.9 9.91922 7.75L6.72922 4.56L3.53922 7.75C3.24922 8.04 2.76922 8.04 2.47922 7.75C2.18922 7.46 2.18922 6.98 2.47922 6.69L6.19925 2.96997C6.33925 2.82997 6.52922 2.75 6.72922 2.75C6.92922 2.75 7.11925 2.82997 7.25925 2.96997L10.9792 6.69C11.2692 6.98 11.2692 7.46 10.9792 7.75C10.8292 7.9 10.6392 7.96997 10.4493 7.96997Z" fill="#353535"/>
<path d="M6.73047 22.25C6.32047 22.25 5.98047 21.91 5.98047 21.5V3.5C5.98047 3.09 6.32047 2.75 6.73047 2.75C7.14047 2.75 7.48047 3.09 7.48047 3.5V21.5C7.48047 21.91 7.14047 22.25 6.73047 22.25Z" fill="#353535"/>
<path d="M17.28 22.25C17.08 22.25 16.89 22.17 16.75 22.03L13.03 18.31C12.74 18.02 12.74 17.54 13.03 17.25C13.32 16.96 13.8 16.96 14.09 17.25L17.28 20.44L20.4699 17.25C20.7599 16.96 21.24 16.96 21.53 17.25C21.82 17.54 21.82 18.02 21.53 18.31L17.81 22.03C17.67 22.17 17.47 22.25 17.28 22.25Z" fill="#353535"/>
<path d="M17.2695 22.25C16.8595 22.25 16.5195 21.91 16.5195 21.5V3.5C16.5195 3.09 16.8595 2.75 17.2695 2.75C17.6795 2.75 18.0195 3.09 18.0195 3.5V21.5C18.0195 21.91 17.6895 22.25 17.2695 22.25Z" fill="#353535"/>
</svg>
