<svg width="16" height="16" viewBox="0 0 16 16" fill="none" xmlns="http://www.w3.org/2000/svg">
<path d="M8 16C12.4183 16 16 12.4183 16 8C16 3.58172 12.4183 0 8 0C3.58172 0 0 3.58172 0 8C0 12.4183 3.58172 16 8 16Z" fill="#4570B5"/>
<path opacity="0.5" d="M8 16C12.4183 16 16 12.4183 16 8C16 3.58172 12.4183 0 8 0C3.58172 0 0 3.58172 0 8C0 12.4183 3.58172 16 8 16Z" fill="#4570B5"/>
<path d="M6.56829 11.1275L4.33899 8.85999C4.31915 8.84043 4.30341 8.81713 4.29266 8.79144C4.28191 8.76574 4.27637 8.73816 4.27637 8.71031C4.27637 8.68245 4.28191 8.65488 4.29266 8.62918C4.30341 8.60349 4.31915 8.58018 4.33899 8.56063L5.51415 7.40458C5.55406 7.36529 5.60782 7.34327 5.66383 7.34327C5.71984 7.34327 5.7736 7.36529 5.81351 7.40458L6.58103 8.17846C6.60058 8.1983 6.62389 8.21405 6.64959 8.2248C6.67528 8.23555 6.70286 8.24109 6.73071 8.24109C6.75857 8.24109 6.78614 8.23555 6.81184 8.2248C6.83753 8.21405 6.86084 8.1983 6.88039 8.17846L10.202 4.85999C10.2216 4.84015 10.2449 4.8244 10.2706 4.81365C10.2963 4.8029 10.3239 4.79736 10.3517 4.79736C10.3796 4.79736 10.4072 4.8029 10.4329 4.81365C10.4586 4.8244 10.4819 4.84015 10.5014 4.85999L11.6638 6.02241C11.6867 6.04214 11.7051 6.06658 11.7177 6.09406C11.7303 6.12154 11.7368 6.15142 11.7368 6.18165C11.7368 6.21188 11.7303 6.24175 11.7177 6.26923C11.7051 6.29671 11.6867 6.32115 11.6638 6.34088L6.88676 11.1371C6.86608 11.1589 6.84101 11.1761 6.8132 11.1876C6.78538 11.1991 6.75546 11.2046 6.72538 11.2037C6.69531 11.2028 6.66577 11.1955 6.63869 11.1824C6.61162 11.1693 6.58762 11.1506 6.56829 11.1275Z" fill="white"/>
</svg>
